# xmcd
#
# Track frame offsets:
#	150
#	10472
#	27849
#	36366
#	44901
#	55097
#	67625
#	78613
#	90892
#	99936
#	110332
#	119968
#
# Disc length: 1740 seconds
#
# Revision: 1
# Processed by: cddbd v1.5.2PL0 Copyright (c) Steve Scherf et al.
# Submitted via: audiograbber 1.83.01
#
DISCID=9806ca0c
DTITLE=Charley Pride - Make Mine Country
DYEAR=1968
DGENRE=Country
TTITLE0=Now I Can Live Again
TTITLE1=A Word Or Two To Mary
TTITLE2=If You Should Come Back Today
TTITLE3=Guess Things Happen That Way
TTITLE4=Before The Next Teardrop Falls
TTITLE5=Banks Of The Ohio
TTITLE6=Wings Of A Dove
TTITLE7=Just Someone I Used To Know
TTITLE8=Lie To Me
TTITLE9=Why Didn't I Think Of That
TTITLE10=Above And Beyond (The Call Of Love)
TTITLE11=Baby Is Gone - (J.Clement)
EXTD=
EXTT0=
EXTT1=
EXTT2=
EXTT3=
EXTT4=
EXTT5=
EXTT6=
EXTT7=
EXTT8=
EXTT9=
EXTT10=
EXTT11=
PLAYORDER=
